<svg width="16" height="17" viewBox="0 0 16 17" fill="none" xmlns="http://www.w3.org/2000/svg">
    <path id="Vector"
        d="M0 10.129C0.00109954 8.51987 0.604682 6.96987 1.69126 5.78585C2.77778 4.6019 4.268 3.87045 5.86667 3.73642V10.664H12.7733C12.624 12.3049 11.8513 13.8255 10.6153 14.9108C9.37914 15.9961 7.77422 16.5631 6.13289 16.4944C4.49156 16.4257 2.93941 15.7265 1.79778 14.5416C0.656163 13.3567 0.0125926 11.7768 0.000148123 10.129H0ZM16 7.90721C16 5.94262 15.2219 4.05858 13.837 2.6695C12.4521 1.28043 10.5738 0.5 8.61511 0.5C8.40713 0.5 8.20267 0.514279 8 0.5303V8.52417H15.968C15.9858 8.32089 16 8.11584 16 7.90721Z"
        fill="currentColor" />
</svg>