<svg width="19" height="24" viewBox="0 0 19 24" fill="none" xmlns="http://www.w3.org/2000/svg">
    <path id="Vector"
        d="M9.50045 23.999C8.50088 24.0173 7.52507 23.6946 6.73546 23.0847C5.94596 22.4749 5.3902 21.6145 5.16079 20.6467H3.2479C2.38682 20.6458 1.56139 20.3052 0.952442 19.6998C0.343537 19.0943 0.000999917 18.2735 0 17.4172C0.0145199 16.8932 0.14384 16.3786 0.378882 15.9092C0.613905 15.44 0.949051 15.0272 1.3608 14.7C1.61928 14.4027 1.76166 14.023 1.76201 13.6301V7.66113C1.97955 2.38826 5.92383 0.00171708 9.49723 0.0015009C10.8554 -0.0254363 12.1959 0.310649 13.3789 0.974708C14.5618 1.63868 15.5439 2.60631 16.2225 3.77652C16.9012 4.94672 17.2516 6.27655 17.2371 7.62741L17.238 13.6301C17.2057 14.1193 17.4796 14.468 17.9286 15.0016C18.6024 15.6389 18.9888 16.5199 19 17.4448C18.9916 18.2962 18.6458 19.11 18.0378 19.7096C17.4297 20.3091 16.6084 20.646 15.7521 20.647H13.8392C13.6098 21.6145 13.0542 22.4748 12.2648 23.0848C11.4755 23.6947 10.4998 24.0174 9.50045 23.9993L9.50045 23.999ZM6.86719 20.6468C7.15912 21.3382 7.71427 21.8867 8.41147 22.1726C9.10859 22.4584 9.89122 22.4584 10.5882 22.1726C11.2854 21.8867 11.8405 21.3382 12.1325 20.6468H6.86719ZM15.7523 19.0255C16.1908 19.024 16.6101 18.8465 16.915 18.5331C17.2199 18.2198 17.3846 17.7973 17.3718 17.3614C17.4021 16.9264 17.1279 16.5765 16.6781 16.0422C15.9969 15.3999 15.6107 14.5077 15.6098 13.5741L15.6079 7.66096C15.4322 3.49921 12.4116 1.62197 9.49534 1.62262C6.58211 1.62346 3.56518 3.5012 3.39172 7.69425L3.39257 13.6301H3.39248C3.38739 14.4501 3.07525 15.2387 2.51688 15.842C2.01114 16.2064 1.68797 16.77 1.63007 17.3885C1.6248 17.8194 1.79259 18.2346 2.0964 18.5419C2.40013 18.8493 2.81466 19.0234 3.24804 19.0256L15.7523 19.0255ZM13.6667 8.48235C13.4505 8.48235 13.2432 8.39698 13.0903 8.2449C12.9374 8.09291 12.8516 7.88671 12.8516 7.6717C12.8506 6.78548 12.4961 5.93582 11.866 5.30915C11.2358 4.68252 10.3814 4.33005 9.49034 4.32903C9.1991 4.32903 8.93001 4.17459 8.78438 3.92371C8.63875 3.6729 8.63875 3.36393 8.78438 3.11306C8.93 2.86226 9.19908 2.70774 9.49034 2.70774C10.8137 2.70926 12.0825 3.23271 13.0183 4.16336C13.9541 5.094 14.4805 6.35577 14.482 7.67183C14.482 7.88682 14.3961 8.09302 14.2432 8.24503C14.0904 8.39705 13.8831 8.48248 13.6669 8.48248L13.6667 8.48235Z"
        fill="currentColor" />
</svg>