<svg width="18" height="19" viewBox="0 0 18 19" fill="none" xmlns="http://www.w3.org/2000/svg">
    <path
        d="M6.18107 17.2909C8.1512 17.9811 10.3011 17.9547 12.2539 17.2165C14.2065 16.4783 15.8373 15.0753 16.8601 13.2538C17.883 11.4322 18.2325 9.30829 17.8476 7.25442C17.4626 5.20056 16.3677 3.34804 14.7548 2.02153C13.142 0.695131 11.1141 -0.0203809 9.0269 0.000441996C6.93975 0.0211653 4.92657 0.776992 3.34022 2.13524C1.754 3.49348 0.696013 5.3675 0.351832 7.42861C0.00777712 9.48972 0.399449 11.6062 1.4582 13.4071L0 19L6.18107 17.2909ZM1.36108 8.89388C1.36214 7.24141 1.8901 5.63247 2.86817 4.30125C3.84624 2.97003 5.22336 1.98647 6.79867 1.49341C8.37408 1.00036 10.0656 1.02376 11.6268 1.56025C13.188 2.09667 14.5374 3.11815 15.4783 4.47583C16.4192 5.83355 16.9026 7.45658 16.858 9.10847C16.8134 10.7604 16.2431 12.3549 15.2304 13.6596C14.2175 14.9645 12.8149 15.9116 11.2271 16.3628C9.63935 16.814 7.94901 16.746 6.40246 16.1685L6.23064 16.1051L1.58935 17.3794L2.67 13.2238L2.54114 13.0179C1.76753 11.782 1.35846 10.3525 1.36101 8.89402L1.36108 8.89388ZM13.6778 7.01764H4.55113V5.88596H13.6778V7.01764ZM13.6778 9.93973H4.55113V8.81484H13.6778V9.93973ZM13.6778 12.8618H4.55113V11.7301H13.6778V12.8618Z"
        fill="currentColor" />
</svg>