<svg width="16" height="17" viewBox="0 0 16 17" fill="none" xmlns="http://www.w3.org/2000/svg">
    <path fill-rule="evenodd" clip-rule="evenodd"
        d="M10.4053 0.5H14.3792C15.2706 0.5 16 1.22477 16 2.11028V14.8897C16 15.7753 15.2705 16.5 14.3792 16.5H10.4053C9.51394 16.5 8.78449 15.7752 8.78449 14.8897V2.11028C8.78449 1.22471 9.514 0.5 10.4053 0.5ZM1.6208 11.4613H5.59471C6.48606 11.4613 7.21551 12.1861 7.21551 13.0716V14.8897C7.21551 15.7753 6.486 16.5 5.59471 16.5H1.6208C0.729449 16.5 0 15.7752 0 14.8897V13.0716C0 12.186 0.729508 11.4613 1.6208 11.4613ZM1.6208 0.5H5.59471C6.48606 0.5 7.21551 1.22477 7.21551 2.11028V8.39608C7.21551 9.28164 6.486 10.0064 5.59471 10.0064H1.6208C0.729449 10.0064 0 9.28159 0 8.39608V2.11028C0 1.22471 0.729508 0.5 1.6208 0.5Z"
        fill="currentColor" />
</svg>