<svg width="16" height="17" viewBox="0 0 16 17" fill="none" xmlns="http://www.w3.org/2000/svg">
    <path
        d="M8 0.5C5.8783 0.5 3.84346 1.34285 2.3431 2.8431C0.84288 4.34332 0 6.3783 0 8.5C0 10.6217 0.842851 12.6565 2.3431 14.1569C3.84332 15.6571 5.8783 16.5 8 16.5C10.1217 16.5 12.1565 15.6572 13.6569 14.1569C15.1571 12.6567 16 10.6217 16 8.5C15.9977 6.37903 15.1541 4.3455 13.6543 2.84572C12.1544 1.34594 10.121 0.502332 8 0.5ZM7.56275 1.91493C7.70793 1.90616 7.85311 1.89921 8 1.89921C8.14689 1.89921 8.29207 1.89921 8.43725 1.91493V4.40552C8.14661 4.37427 7.85339 4.37427 7.56275 4.40552V1.91493ZM10.7197 8.49997C10.7197 9.22127 10.4332 9.91307 9.9231 10.4232C9.41309 10.9332 8.72128 11.2198 7.99991 11.2198C7.27855 11.2198 6.58681 10.9332 6.07672 10.4232C5.56665 9.91315 5.28011 9.22134 5.28011 8.49997C5.28011 7.7786 5.56665 7.08687 6.07672 6.57678C6.58674 6.06671 7.27855 5.78016 7.99991 5.78016C8.72109 5.78068 9.41256 6.06734 9.92252 6.57729C10.4325 7.08725 10.7191 7.77872 10.7196 8.4999L10.7197 8.49997ZM6.17228 2.15979V4.81479C5.36945 5.21396 4.71772 5.86262 4.31482 6.6635H1.65982C1.9717 5.59491 2.54782 4.62211 3.33494 3.83491C4.12205 3.04773 5.09488 2.47162 6.16353 2.15979H6.17228ZM1.39921 8.49997C1.39921 8.35308 1.39921 8.2079 1.41493 8.06272H3.90553C3.87433 8.35336 3.87433 8.64658 3.90553 8.93723H1.41493C1.40622 8.79204 1.39921 8.64686 1.39921 8.49997ZM6.16353 14.8402C5.09494 14.5283 4.12214 13.9522 3.33494 13.165C2.54776 12.3779 1.97165 11.4051 1.65982 10.3364H4.31482C4.71547 11.136 5.364 11.7845 6.16353 12.1851V14.8402ZM8.43725 15.0868C8.29207 15.0956 8.14689 15.1025 8 15.1025C7.85311 15.1025 7.70793 15.1025 7.56275 15.0868V12.5944C7.85339 12.6257 8.14661 12.6257 8.43725 12.5944V15.0868ZM9.83647 14.8402V12.1851C10.636 11.7845 11.2845 11.136 11.6852 10.3364H14.3402C14.0283 11.405 13.4522 12.3778 12.6651 13.165C11.8779 13.9522 10.9051 14.5283 9.83647 14.8402ZM14.6008 8.49997C14.6008 8.64686 14.6008 8.79204 14.5851 8.93723H12.0945C12.1257 8.64658 12.1257 8.35336 12.0945 8.06272H14.5851C14.5956 8.2079 14.6008 8.35308 14.6008 8.49997ZM11.6852 6.6635C11.2845 5.86399 10.636 5.21544 9.83647 4.81479V2.15979C10.9051 2.47167 11.8779 3.04779 12.6651 3.83491C13.4522 4.62202 14.0283 5.59486 14.3402 6.6635H11.6852Z"
        fill="currentColor" />
</svg>