<svg width="10" height="14" viewBox="0 0 10 14" fill="none" xmlns="http://www.w3.org/2000/svg">
    <path id="Vector"
        d="M5.45643 10.003L5.36 9.919C5.32416 9.89251 5.28525 9.87132 5.24429 9.856L5.12857 9.8C5.02431 9.77627 4.91628 9.78111 4.81416 9.8141C4.71205 9.84709 4.61907 9.90719 4.54357 9.989C4.48679 10.057 4.44113 10.1352 4.40857 10.22C4.35992 10.3475 4.34701 10.4879 4.37145 10.6234C4.3959 10.7589 4.45661 10.8836 4.54595 10.9816C4.63529 11.0796 4.74926 11.1467 4.87352 11.1743C4.99779 11.202 5.12679 11.189 5.24429 11.137C5.3211 11.0964 5.39248 11.0446 5.45643 10.983C5.54563 10.8846 5.60606 10.7596 5.63008 10.6238C5.65411 10.488 5.64066 10.3475 5.59143 10.22C5.55938 10.1391 5.51357 10.0654 5.45643 10.003ZM7.57143 0H2.42857C1.91708 0 1.42654 0.221249 1.06487 0.615076C0.703188 1.0089 0.5 1.54305 0.5 2.1V11.9C0.5 12.457 0.703188 12.9911 1.06487 13.3849C1.42654 13.7788 1.91708 14 2.42857 14H7.57143C8.08292 14 8.57346 13.7788 8.93513 13.3849C9.29681 12.9911 9.5 12.457 9.5 11.9V2.1C9.5 1.54305 9.29681 1.0089 8.93513 0.615076C8.57346 0.221249 8.08292 0 7.57143 0ZM8.21429 11.9C8.21429 12.0857 8.14656 12.2637 8.026 12.395C7.90544 12.5263 7.74192 12.6 7.57143 12.6H2.42857C2.25807 12.6 2.09456 12.5263 1.974 12.395C1.85344 12.2637 1.78571 12.0857 1.78571 11.9V2.1C1.78571 1.91435 1.85344 1.7363 1.974 1.60503C2.09456 1.47375 2.25807 1.4 2.42857 1.4H7.57143C7.74192 1.4 7.90544 1.47375 8.026 1.60503C8.14656 1.7363 8.21429 1.91435 8.21429 2.1V11.9Z"
        fill="currentColor" />
</svg>