<svg width="16" height="19" viewBox="0 0 16 19" fill="none" xmlns="http://www.w3.org/2000/svg">
    <path
        d="M15.5407 4.46115L11.8276 0.75814C11.5214 0.452746 11.1387 0.300049 10.7176 0.300049H1.56938C0.688995 0.300049 0 0.987186 0 1.86519V17.1349C0 18.0129 0.688995 18.7 1.56938 18.7H14.4306C15.311 18.7 16 18.0129 16 17.1349V5.5682C16 5.14828 15.8469 4.72837 15.5407 4.46115ZM6.73684 6.59891L4.66986 8.66032C4.13397 9.19476 3.33014 8.35492 3.86603 7.85866L6.35417 5.37723C6.58383 5.14818 6.92833 5.14818 7.158 5.37723L9.22498 7.43864L11.3301 5.33915C11.866 4.80472 12.6699 5.64455 12.134 6.14081L9.60766 8.66032C9.37799 8.88936 9.03349 8.88936 8.80383 8.66032L6.73684 6.59891ZM8.11483 11.4852H3.55981C2.83254 11.4852 2.83254 10.34 3.55981 10.34H8.11483C8.8421 10.34 8.8421 11.4852 8.11483 11.4852ZM3.52153 14.5774H9.64593C10.3732 14.5774 10.3732 15.7227 9.64593 15.7227H3.52153C2.79426 15.7227 2.79426 14.5774 3.52153 14.5774ZM12.4785 13.5849H3.55981C2.83254 13.5849 2.83254 12.4397 3.55981 12.4397H12.4785C13.2057 12.4397 13.2057 13.5849 12.4785 13.5849Z"
        fill="currentColor" />
</svg>