<svg width="22" height="22" viewBox="0 0 22 22" fill="none" xmlns="http://www.w3.org/2000/svg">
    <path id="Vector"
        d="M21.6777 20.1223L15.7428 14.1874C16.9021 12.6968 17.6 10.8302 17.6 8.8C17.6 3.9479 13.6521 0 8.79998 0C3.94789 0 0 3.9479 0 8.8C0 13.6521 3.94789 17.6 8.79998 17.6C10.8302 17.6 12.6966 16.9022 14.1873 15.7428L20.1223 21.6777C20.3371 21.8926 20.6186 22 20.9 22C21.1814 22 21.4629 21.8926 21.6777 21.6777C22.1074 21.2481 22.1074 20.552 21.6777 20.1223L21.6777 20.1223ZM2.20004 8.8C2.20004 5.16054 5.16057 2.2 8.80002 2.2C12.4395 2.2 15.4 5.16054 15.4 8.8C15.4 12.4395 12.4395 15.4 8.80002 15.4C5.16057 15.4 2.20004 12.4395 2.20004 8.8Z"
        fill="currentColor" />
</svg>