<svg width="16" height="17" viewBox="0 0 16 17" fill="none" xmlns="http://www.w3.org/2000/svg">
    <path
        d="M15.6938 10.2313C15.2755 9.99782 14.9553 9.62704 14.7898 9.18485C14.6243 8.74261 14.6243 8.25747 14.7898 7.81523C14.9553 7.37305 15.2755 7.00228 15.6938 6.76874C15.8339 6.68817 15.9362 6.55713 15.9785 6.40368C16.0209 6.25028 16 6.08676 15.9205 5.94823L14.2415 3.10104C14.1562 2.96719 14.0222 2.86995 13.8664 2.82886C13.7106 2.7877 13.5447 2.80584 13.402 2.8795C12.9813 3.12225 12.4857 3.21008 12.0046 3.12706C11.5235 3.04405 11.0885 2.79572 10.7783 2.4268C10.4681 2.05795 10.303 1.59283 10.3128 1.11539C10.3106 0.952823 10.2436 0.797568 10.126 0.682565C10.0083 0.567629 9.84946 0.502117 9.68315 0.5H6.32521C6.15889 0.502115 6.00005 0.567629 5.88239 0.682565C5.76479 0.797565 5.69777 0.952826 5.6956 1.11539C5.69422 1.83206 5.30256 2.49379 4.66762 2.85226C4.0327 3.21072 3.25054 3.21167 2.61475 2.85482C2.47302 2.77706 2.30572 2.75668 2.14877 2.79809C1.99176 2.8395 1.8577 2.93944 1.77526 3.07636L0.0962982 5.92355C0.0101857 6.06438 -0.0111288 6.2342 0.0375343 6.39124C0.0816072 6.54958 0.187001 6.68495 0.331354 6.76868C0.640384 6.94496 0.896292 7.19791 1.07319 7.50196C1.25007 7.80593 1.34169 8.15023 1.33873 8.49997C1.33893 8.85317 1.2435 9.2001 1.06209 9.50561C0.880745 9.81112 0.619985 10.0643 0.306169 10.2395C0.166079 10.32 0.0638269 10.4511 0.0214666 10.6045C-0.0209004 10.7579 -4.42888e-05 10.9214 0.0795085 11.06L1.75848 13.9072C1.8438 14.041 1.97785 14.1383 2.13362 14.1794C2.28939 14.2205 2.45531 14.2024 2.59796 14.1287C2.90818 13.9497 3.26187 13.8553 3.62213 13.8553C3.98238 13.8553 4.33607 13.9497 4.6463 14.1287C4.96688 14.3018 5.23367 14.5563 5.41842 14.8654C5.60311 15.1745 5.69893 15.5267 5.69565 15.8846C5.69782 16.0472 5.76484 16.2024 5.88244 16.3174C6.0001 16.4324 6.15895 16.4979 6.32526 16.5H9.6832C9.85096 16.4978 10.011 16.4312 10.1289 16.3145C10.2468 16.1978 10.3128 16.0404 10.3128 15.8764C10.3172 15.1612 10.71 14.5021 11.3444 14.1456C11.9787 13.7891 12.7591 13.789 13.3937 14.1451C13.5355 14.2229 13.7028 14.2432 13.8597 14.2018C14.0167 14.1604 14.1508 14.0605 14.2332 13.9236L15.9122 11.0764C15.9983 10.9355 16.0196 10.7657 15.9709 10.6087C15.931 10.453 15.832 10.3181 15.6939 10.2312L15.6938 10.2313ZM8.00416 11.577C7.16926 11.577 6.36855 11.2528 5.77819 10.6758C5.1878 10.0987 4.85613 9.31608 4.85613 8.50008C4.85613 7.68408 5.1878 6.90142 5.77819 6.3244C6.36858 5.74735 7.1693 5.42318 8.00416 5.42318C8.83903 5.42318 9.63978 5.74735 10.2301 6.3244C10.8205 6.90145 11.1522 7.68408 11.1522 8.50008C11.1522 9.04021 11.0067 9.57079 10.7304 10.0385C10.4541 10.5063 10.0567 10.8947 9.57816 11.1648C9.09959 11.4348 8.55674 11.577 8.00413 11.577L8.00416 11.577Z"
        fill="currentColor" />
</svg>