<svg width="1766" height="327" viewBox="0 0 1766 327" fill="none" xmlns="http://www.w3.org/2000/svg">
<g clip-path="url(#clip0_2073_56)">
<path d="M134.192 304.842C157.642 275.738 185.014 252.919 221.566 242.997C252.861 234.481 283.906 236.217 314.783 247.71C313.948 248.702 313.448 249.446 312.864 250.025C278.648 282.601 238.257 303.188 191.357 310.795C172.163 313.937 153.386 310.877 134.192 304.842Z" fill="#0DC36B"/>
<path d="M128.517 303.436C89.1273 290.125 54.4945 269.62 25.2861 240.269C58.8341 220.508 136.695 231.587 167.239 260.36C150.799 271.439 137.363 285.164 128.517 303.353V303.436Z" fill="#087C43"/>
<path d="M110.157 58.5376C123.76 63.4984 136.028 70.3609 146.793 79.8691C154.304 86.4835 160.479 94.1727 164.902 103.185C170.577 114.925 171.328 126.997 166.822 139.978C159.895 129.725 151.633 121.375 141.285 115.091C147.294 127.245 152.718 139.399 154.721 153.537C153.302 153.041 152.384 152.71 151.55 152.297C130.52 142.375 117.918 125.839 112.661 103.516C109.323 89.2119 108.405 74.7429 109.824 60.1085C109.824 59.6951 110.074 59.2817 110.241 58.5376H110.157Z" fill="#03321B"/>
<path d="M199.702 0C194.027 10.9965 196.447 21.4968 198.867 32.0799C200.787 40.6786 203.207 49.1947 204.459 57.8761C205.877 67.715 202.873 76.8099 195.863 84.0857C189.604 90.6175 182.511 90.2041 176.669 83.4243C158.143 61.7621 158.894 31.1704 178.588 11.8233C184.347 6.20101 191.106 2.14968 199.702 0Z" fill="#03321B"/>
<path d="M252.527 72.6759C250.775 81.2747 249.022 89.46 247.353 97.728C246.519 101.779 246.018 105.831 245.267 109.882C241.345 132.04 227.325 145.931 207.463 155.025C204.459 156.348 201.371 157.34 197.365 158.829C203.875 142.21 212.637 128.072 222.985 114.429C215.892 116.166 205.293 126.583 194.278 142.541C192.024 137.745 192.442 133.032 193.276 128.32C194.778 119.886 199.118 112.776 204.709 106.327C215.641 93.594 229.578 84.6646 244.266 76.81C246.936 75.4044 249.69 74.0815 252.527 72.5933V72.6759Z" fill="#03321B"/>
<path d="M151.633 206.783C141.202 205.377 131.521 202.732 122.175 198.928C110.157 194.05 99.6424 187.022 91.3806 176.853C83.9533 167.675 75.1908 159.986 65.4268 153.454C64.6758 152.958 63.9247 152.38 63.1736 151.801C63.0067 151.635 62.9233 151.387 62.7563 151.057C74.2728 148.99 85.7058 149.651 96.8884 152.38C114.998 156.844 130.603 165.443 141.953 180.573C147.628 188.097 151.216 196.613 151.55 206.783H151.633Z" fill="#03321B"/>
<path d="M321.459 251.348C242.43 359.245 94.1344 345.107 27.873 250.355C66.6785 294.424 115.582 316.086 174.332 316.748C233.584 317.409 282.236 294.92 321.459 251.348Z" fill="#03321B"/>
<path d="M254.781 9.5083C259.621 12.3194 264.628 14.9652 269.301 18.0244C297.175 35.6352 319.54 58.3723 333.977 88.1371C347.33 115.67 352.337 144.69 348.915 175.199C346.328 198.432 339.068 220.012 326.884 240.021C325.715 241.922 324.964 242.501 322.794 241.426C319.039 239.607 315.033 238.036 310.944 236.3C338.65 197.936 346.078 156.018 334.394 110.957C322.711 65.8962 294.254 33.4855 254.363 10.2524C254.53 10.0044 254.614 9.75634 254.781 9.5083Z" fill="#03321B"/>
<path d="M33.5479 228.611C28.3738 230.264 23.617 231.753 18.443 233.406C-0.834553 194.712 -5.42444 154.777 6.67618 113.272C21.6976 61.3487 62.4225 25.6309 97.0553 9.5083C58.5002 31.6666 30.3767 62.4236 17.6085 105.417C4.84022 148.411 9.93083 189.503 33.5479 228.611Z" fill="#03321B"/>
<path d="M205.377 194.794C205.961 192.479 206.128 190.66 206.795 189.007C210.551 179.333 217.394 172.801 227.158 169.164C239.509 164.533 252.444 163.128 265.463 162.384C271.471 162.053 277.48 162.384 283.655 162.384C283.655 162.88 283.655 163.293 283.488 163.459C269.802 178.424 255.615 192.975 238.507 204.303C229.494 210.256 219.731 212.571 209.049 210.834C208.464 210.752 207.964 210.586 207.046 210.338C216.81 197.688 227.909 186.94 240.677 177.514C234.168 176.77 224.154 181.731 205.377 194.877V194.794Z" fill="#03321B"/>
<path d="M175.084 104.59C176.252 130.138 177.42 155.769 178.422 181.318C179.34 204.881 180.091 228.528 181.092 252.092C181.176 254.82 180.508 256.06 177.837 256.722C175.334 257.383 172.997 258.458 169.993 259.616C170.41 207.61 171.078 156.017 175 104.59H175.084Z" fill="#03321B"/>
</g>
<g clip-path="url(#clip1_2073_56)">
<path d="M542.213 72.5C595.447 72.5 634.426 111.863 634.426 162.411C634.426 212.958 595.447 254.5 542.213 254.5C488.98 254.5 450 214.12 450 162.411C450 110.701 488.98 72.5 542.213 72.5ZM542.213 215.064C568.612 215.064 589.774 192.405 589.774 162.338C589.774 132.271 568.539 111.863 542.213 111.863C515.887 111.863 494.652 133.506 494.652 162.338C494.652 191.17 515.887 215.064 542.213 215.064Z" fill="#00431F"/>
<path d="M650.934 124.718C674.497 124.718 693.623 143.818 693.623 167.349V199.086C693.623 210.924 698.277 215.863 707.149 215.863C725.403 215.863 734.057 199.885 734.057 180.93V167.422C734.057 143.891 753.183 124.79 776.746 124.79V251.595H735.802V240.483C735.802 236.271 736.311 232.64 736.311 232.64H735.802C728.894 246.148 713.113 254.573 696.095 254.573C670.933 254.573 651.007 242.735 651.007 207.075V124.718H650.934Z" fill="#00431F"/>
<path d="M808.526 160.159H792.236V126.897H809.762C809.762 106.779 826.125 90.4385 846.269 90.4385H851.214V126.897H877.831V160.159H851.214V199.087C851.214 213.394 865.759 215.355 873.904 215.355C877.322 215.355 879.576 215.137 879.576 215.137V252.031C879.576 252.031 874.922 252.757 868.013 252.757C847.796 252.757 808.598 247.31 808.598 204.751V160.159H808.526Z" fill="#00431F"/>
<path d="M983.643 72.5C1027.28 72.5 1049.75 97.338 1049.75 97.338L1049.17 98.2821C1039.49 113.969 1020.37 120.288 1002.84 114.696C997.533 113.025 991.716 111.863 985.68 111.863C951.936 111.863 935.864 136.701 935.864 162.12C935.864 187.539 953.099 215.064 985.68 215.064C993.097 215.064 1000.01 213.394 1006.11 210.997C1023.71 204.025 1043.71 209.254 1054.62 224.723L1054.77 224.941C1054.77 224.941 1029.9 254.5 983.789 254.5C928.592 254.5 891.357 215.355 891.357 163.137C891.357 110.919 930.628 72.5 983.643 72.5Z" fill="#00431F"/>
<path d="M1132.07 121.74C1172.29 121.74 1204.29 148.612 1204.29 188.483C1204.29 228.355 1172.21 254.5 1132.29 254.5C1092.36 254.5 1060.29 228.137 1060.29 188.483C1060.29 148.83 1092.36 121.74 1132.07 121.74ZM1132.29 218.986C1147.85 218.986 1161.16 207.439 1161.16 188.483C1161.16 169.528 1147.85 157.182 1132.29 157.182C1116.73 157.182 1103.42 169.237 1103.42 188.483C1103.42 207.729 1116.73 218.986 1132.29 218.986Z" fill="#00431F"/>
<path d="M1220.36 124.718H1261.3V135.83C1261.3 140.042 1260.79 143.673 1260.79 143.673H1261.3C1267.19 134.813 1279.05 121.74 1299.04 121.74C1315.04 121.74 1327.92 128.858 1334.53 143.165H1335.04C1341.73 132.561 1356.71 121.74 1375.69 121.74C1398.89 121.74 1416.86 134.304 1416.86 169.237V251.45H1374.17V176.355C1374.17 166.986 1372.42 160.377 1364.28 160.377C1350.68 160.377 1343.55 170.254 1340.86 184.271C1339.84 188.701 1339.84 193.858 1339.84 199.014V251.45H1297.15V176.355C1297.15 166.986 1295.41 160.377 1287.26 160.377C1273.95 160.377 1267.05 169.746 1264.06 183.254C1263.05 187.902 1262.83 193.567 1262.83 199.014V251.45H1220.14V124.718H1220.36Z" fill="#00431F"/>
<path d="M1497.51 121.74C1534.96 121.74 1556.19 147.813 1556.19 183.036C1556.19 187.249 1555.18 196.327 1555.18 196.327H1475.03C1478.23 211.869 1491.03 218.986 1504.63 218.986C1508.41 218.986 1512.2 218.405 1515.69 217.534C1531.47 213.612 1547.83 221.601 1555.39 235.98C1555.39 235.98 1534.96 254.427 1501.14 254.427C1455.76 254.427 1431.33 221.673 1431.33 187.975C1431.33 150.791 1456.49 121.74 1497.43 121.74H1497.51ZM1513.29 171.997C1513.29 162.411 1506.6 153.768 1496.49 153.768C1484.12 153.768 1478.23 162.629 1476.05 171.997H1513.29Z" fill="#00431F"/>
<path d="M1573.21 124.718H1592.7C1604.55 124.718 1614.15 134.305 1614.15 146.143C1614.15 150.355 1613.64 153.986 1613.64 153.986H1614.15C1619.61 136.774 1635.61 122.467 1654.59 122.467C1657.06 122.467 1659.53 122.975 1659.53 122.975V164.807C1659.53 164.807 1656.12 164.081 1650.88 164.081C1640.77 164.081 1624.26 167.277 1618.08 186.232C1616.63 190.88 1615.83 196.545 1615.83 203.444V251.45H1573.14V124.718H1573.21Z" fill="#00431F"/>
<path d="M1663.24 235.762C1672.04 222.036 1688.48 215.282 1704.4 218.913C1707.38 219.567 1710.51 220.003 1713.78 220.003C1720.18 220.003 1726.37 218.26 1726.37 214.12C1726.37 203.008 1666.95 201.774 1666.95 160.45C1666.95 136.556 1689.86 121.813 1719.24 121.813C1748.62 121.813 1763.89 136.338 1763.89 136.338C1756.98 150.718 1741.64 158.997 1725.78 156.746C1723.67 156.455 1721.49 156.31 1719.24 156.31C1712.84 156.31 1706.66 158.053 1706.66 162.483C1706.66 172.07 1766.07 173.595 1766.07 214.411C1766.07 236.053 1746.87 254.573 1714.08 254.573C1681.28 254.573 1663.31 235.835 1663.31 235.835L1663.24 235.762Z" fill="#00431F"/>
</g>
<defs>
<clipPath id="clip0_2073_56">
<rect width="350" height="327" fill="white"/>
</clipPath>
<clipPath id="clip1_2073_56">
<rect width="1316" height="182" fill="white" transform="translate(450 72.5)"/>
</clipPath>
</defs>
</svg>
